<?xml version="1.0" encoding="UTF-8" standalone="no"?>
<svg
   xmlns:dc="http://purl.org/dc/elements/1.1/"
   xmlns:cc="http://creativecommons.org/ns#"
   xmlns:rdf="http://www.w3.org/1999/02/22-rdf-syntax-ns#"
   xmlns:svg="http://www.w3.org/2000/svg"
   xmlns="http://www.w3.org/2000/svg"
   xmlns:sodipodi="http://sodipodi.sourceforge.net/DTD/sodipodi-0.dtd"
   xmlns:inkscape="http://www.inkscape.org/namespaces/inkscape"
   enable-background="new 0 0 64 64"
   height="64px"
   version="1.1"
   viewBox="0 0 64 64"
   width="64px"
   xml:space="preserve"
   id="svg16"
   sodipodi:docname="logo.svg"
   inkscape:version="0.92.4 5da689c313, 2019-01-14"
   inkscape:export-filename="/home/misto/lm-logo.png"
   inkscape:export-xdpi="150"
   inkscape:export-ydpi="150"><metadata
     id="metadata22"><rdf:RDF><cc:Work
         rdf:about=""><dc:format>image/svg+xml</dc:format><dc:type
           rdf:resource="http://purl.org/dc/dcmitype/StillImage" /></cc:Work></rdf:RDF></metadata><defs
     id="defs20" /><sodipodi:namedview
     pagecolor="#ffffff"
     bordercolor="#666666"
     borderopacity="1"
     objecttolerance="10"
     gridtolerance="10"
     guidetolerance="10"
     inkscape:pageopacity="0"
     inkscape:pageshadow="2"
     inkscape:window-width="1570"
     inkscape:window-height="941"
     id="namedview18"
     showgrid="false"
     inkscape:zoom="3.6875001"
     inkscape:cx="17.389125"
     inkscape:cy="-18.088859"
     inkscape:window-x="965"
     inkscape:window-y="262"
     inkscape:window-maximized="0"
     inkscape:current-layer="svg16" /><g
     id="g4"
     inkscape:export-filename="/home/misto/lm-logo.png"
     inkscape:export-xdpi="150"
     inkscape:export-ydpi="150"><circle
       style="fill:#0065a3;fill-opacity:1"
       id="circle2"
       r="32"
       cy="32"
       cx="32" /></g><g
     id="Layer_2"
     transform="matrix(0.57128186,0,0,0.57128186,13.922461,13.876834)" /><g
     transform="matrix(0.48957013,0,0,0.48957013,10.108413,16.222572)"
     id="g1176"
     inkscape:export-filename="/home/misto/lm-logo.png"
     inkscape:export-xdpi="150"
     inkscape:export-ydpi="150"><g
       transform="matrix(0.29741252,0,0,0.29741252,7.116321,23.235478)"
       id="g1172"
       style="opacity:0.6;fill:#000000;fill-opacity:1" /></g><g
     id="g4635"><g
       style="stroke-width:0.66098297"
       transform="matrix(1.5128983,0,0,1.5128983,4.6797063,-8.637646)"
       id="g4571"><g
         style="stroke-width:0.66098297"
         transform="translate(1.424727,-14.19344)"
         id="g1144"
         inkscape:export-filename="/home/misto/lm-logo.png"
         inkscape:export-xdpi="150"
         inkscape:export-ydpi="150"><g
           transform="matrix(0.29741252,0,0,0.29741252,7.116321,23.235478)"
           id="g1140"
           style="opacity:0.6;fill:#000000;fill-opacity:1;stroke-width:0.66098297"><path
             d="M 48,37.077 C 48,46.423 40.837,54 32,54 23.163,54 16,46.423 16,37.077 16,27.731 25.6,20.154 32,10 38.4,20.154 48,27.731 48,37.077 Z"
             id="path1138"
             inkscape:connector-curvature="0"
             style="opacity:1;fill:#000000;fill-opacity:1;stroke-width:0.66098297" /></g><path
           style="fill:#ffffff;stroke-width:0.19658461"
           inkscape:connector-curvature="0"
           id="path1142"
           d="m 21.392122,33.072992 c 0,2.779617 -2.130366,5.033112 -4.7586,5.033112 -2.628234,0 -4.7586,-2.253495 -4.7586,-5.033112 0,-2.779618 2.85516,-5.033112 4.7586,-8.053039 1.90344,3.019927 4.7586,5.273421 4.7586,8.053039 z" /></g></g><g
       id="g4603"
       transform="matrix(1.5128983,0,0,1.5128983,4.6797063,19.294557)"
       style="stroke-width:0.66098297"><g
         inkscape:export-ydpi="150"
         inkscape:export-xdpi="150"
         inkscape:export-filename="/home/misto/lm-logo.png"
         id="g4601"
         transform="translate(1.424727,-14.19344)"
         style="stroke-width:0.66098297"><g
           style="opacity:0.6;fill:#000000;fill-opacity:1;stroke-width:0.66098297"
           id="g4597"
           transform="matrix(0.29741252,0,0,0.29741252,7.116321,23.235478)"><path
             style="opacity:1;fill:#000000;fill-opacity:1;stroke-width:0.66098297"
             inkscape:connector-curvature="0"
             id="path4595"
             d="M 48,37.077 C 48,46.423 40.837,54 32,54 23.163,54 16,46.423 16,37.077 16,27.731 25.6,20.154 32,10 38.4,20.154 48,27.731 48,37.077 Z" /></g><path
           d="m 21.392122,33.072992 c 0,2.779617 -2.130366,5.033112 -4.7586,5.033112 -2.628234,0 -4.7586,-2.253495 -4.7586,-5.033112 0,-2.779618 2.85516,-5.033112 4.7586,-8.053039 1.90344,3.019927 4.7586,5.273421 4.7586,8.053039 z"
           id="path4599"
           inkscape:connector-curvature="0"
           style="fill:#ffffff;stroke-width:0.19658461" /></g></g></g><g
     id="g4613"
     transform="matrix(1.5128983,0,0,1.5128983,-12.811818,4.8216693)"
     style="stroke-width:0.66098297"><g
       inkscape:export-ydpi="150"
       inkscape:export-xdpi="150"
       inkscape:export-filename="/home/misto/lm-logo.png"
       id="g4611"
       transform="translate(1.424727,-14.19344)"
       style="stroke-width:0.66098297"><g
         style="opacity:0.6;fill:#000000;fill-opacity:1;stroke-width:0.66098297"
         id="g4607"
         transform="matrix(0.29741252,0,0,0.29741252,7.116321,23.235478)"><path
           style="opacity:1;fill:#000000;fill-opacity:1;stroke-width:0.66098297"
           inkscape:connector-curvature="0"
           id="path4605"
           d="M 48,37.077 C 48,46.423 40.837,54 32,54 23.163,54 16,46.423 16,37.077 16,27.731 25.6,20.154 32,10 38.4,20.154 48,27.731 48,37.077 Z" /></g><path
         d="m 21.392122,33.072992 c 0,2.779617 -2.130366,5.033112 -4.7586,5.033112 -2.628234,0 -4.7586,-2.253495 -4.7586,-5.033112 0,-2.779618 2.85516,-5.033112 4.7586,-8.053039 1.90344,3.019927 4.7586,5.273421 4.7586,8.053039 z"
         id="path4609"
         inkscape:connector-curvature="0"
         style="fill:#ffffff;stroke-width:0.19658461" /></g></g><g
     style="stroke-width:0.66098297"
     transform="matrix(1.5128983,0,0,1.5128983,22.171231,4.8216693)"
     id="g4623"><g
       style="stroke-width:0.66098297"
       transform="translate(1.424727,-14.19344)"
       id="g4621"
       inkscape:export-filename="/home/misto/lm-logo.png"
       inkscape:export-xdpi="150"
       inkscape:export-ydpi="150"><g
         transform="matrix(0.29741252,0,0,0.29741252,7.116321,23.235478)"
         id="g4617"
         style="opacity:0.6;fill:#000000;fill-opacity:1;stroke-width:0.66098297"><path
           d="M 48,37.077 C 48,46.423 40.837,54 32,54 23.163,54 16,46.423 16,37.077 16,27.731 25.6,20.154 32,10 38.4,20.154 48,27.731 48,37.077 Z"
           id="path4615"
           inkscape:connector-curvature="0"
           style="opacity:1;fill:#000000;fill-opacity:1;stroke-width:0.66098297" /></g><path
         style="fill:#ffffff;stroke-width:0.19658461"
         inkscape:connector-curvature="0"
         id="path4619"
         d="m 21.392122,33.072992 c 0,2.779617 -2.130366,5.033112 -4.7586,5.033112 -2.628234,0 -4.7586,-2.253495 -4.7586,-5.033112 0,-2.779618 2.85516,-5.033112 4.7586,-8.053039 1.90344,3.019927 4.7586,5.273421 4.7586,8.053039 z" /></g></g></svg>