<?xml version="1.0" encoding="UTF-8" standalone="no"?>
<svg
   xmlns:dc="http://purl.org/dc/elements/1.1/"
   xmlns:cc="http://creativecommons.org/ns#"
   xmlns:rdf="http://www.w3.org/1999/02/22-rdf-syntax-ns#"
   xmlns:svg="http://www.w3.org/2000/svg"
   xmlns="http://www.w3.org/2000/svg"
   xmlns:sodipodi="http://sodipodi.sourceforge.net/DTD/sodipodi-0.dtd"
   xmlns:inkscape="http://www.inkscape.org/namespaces/inkscape"
   enable-background="new 0 0 64 64"
   height="64px"
   version="1.1"
   viewBox="0 0 64 64"
   width="64px"
   xml:space="preserve"
   id="svg16"
   sodipodi:docname="LM-Logo.svg"
   inkscape:version="0.92.2 2405546, 2018-03-11"
   inkscape:export-filename="/home/misto/lm-logo.png"
   inkscape:export-xdpi="150"
   inkscape:export-ydpi="150"><metadata
     id="metadata22"><rdf:RDF><cc:Work
         rdf:about=""><dc:format>image/svg+xml</dc:format><dc:type
           rdf:resource="http://purl.org/dc/dcmitype/StillImage" /></cc:Work></rdf:RDF></metadata><defs
     id="defs20" /><sodipodi:namedview
     pagecolor="#ffffff"
     bordercolor="#666666"
     borderopacity="1"
     objecttolerance="10"
     gridtolerance="10"
     guidetolerance="10"
     inkscape:pageopacity="0"
     inkscape:pageshadow="2"
     inkscape:window-width="1920"
     inkscape:window-height="1018"
     id="namedview18"
     showgrid="false"
     inkscape:zoom="2.6074563"
     inkscape:cx="56.001292"
     inkscape:cy="-33.918282"
     inkscape:window-x="0"
     inkscape:window-y="28"
     inkscape:window-maximized="1"
     inkscape:current-layer="svg16" /><g
     id="g922"
     transform="translate(52)"
     inkscape:export-filename="/home/misto/lm-logo.png"
     inkscape:export-xdpi="150"
     inkscape:export-ydpi="150"><circle
       cx="32"
       cy="32"
       r="32"
       id="circle920"
       style="fill:#0065a3;fill-opacity:1" /></g><g
     id="g4"
     inkscape:export-filename="/home/misto/lm-logo.png"
     inkscape:export-xdpi="150"
     inkscape:export-ydpi="150"><circle
       style="fill:#0065a3;fill-opacity:1"
       id="circle2"
       r="32"
       cy="32"
       cx="32" /></g><g
     id="Layer_2"
     transform="matrix(0.57128186,0,0,0.57128186,13.922461,13.876834)" /><g
     id="g900"
     transform="translate(1.4247266,13.80656)"
     inkscape:export-filename="/home/misto/lm-logo.png"
     inkscape:export-xdpi="150"
     inkscape:export-ydpi="150"><g
       style="opacity:0.6;fill:#000000;fill-opacity:1"
       id="g4576"
       transform="matrix(0.29741252,0,0,0.29741252,7.116321,23.235478)"><path
         style="opacity:1;fill:#000000;fill-opacity:1"
         inkscape:connector-curvature="0"
         id="path4574"
         d="M 48,37.077 C 48,46.423 40.837,54 32,54 23.163,54 16,46.423 16,37.077 16,27.731 25.6,20.154 32,10 38.4,20.154 48,27.731 48,37.077 Z" /></g><path
       d="m 21.392122,33.072992 c 0,2.779617 -2.130366,5.033112 -4.7586,5.033112 -2.628234,0 -4.7586,-2.253495 -4.7586,-5.033112 0,-2.779618 2.85516,-5.033112 4.7586,-8.053039 1.90344,3.019927 4.7586,5.273421 4.7586,8.053039 z"
       id="path4578"
       inkscape:connector-curvature="0"
       style="fill:#ffffff;stroke-width:0.29741251" /></g><g
     transform="translate(25.424727,13.80656)"
     id="g1080"
     inkscape:export-filename="/home/misto/lm-logo.png"
     inkscape:export-xdpi="150"
     inkscape:export-ydpi="150"><g
       transform="matrix(0.29741252,0,0,0.29741252,7.116321,23.235478)"
       id="g1076"
       style="opacity:0.6;fill:#000000;fill-opacity:1"><path
         d="M 48,37.077 C 48,46.423 40.837,54 32,54 23.163,54 16,46.423 16,37.077 16,27.731 25.6,20.154 32,10 38.4,20.154 48,27.731 48,37.077 Z"
         id="path1074"
         inkscape:connector-curvature="0"
         style="opacity:1;fill:#000000;fill-opacity:1" /></g><path
       style="fill:#ffffff;stroke-width:0.29741251"
       inkscape:connector-curvature="0"
       id="path1078"
       d="m 21.392122,33.072992 c 0,2.779617 -2.130366,5.033112 -4.7586,5.033112 -2.628234,0 -4.7586,-2.253495 -4.7586,-5.033112 0,-2.779618 2.85516,-5.033112 4.7586,-8.053039 1.90344,3.019927 4.7586,5.273421 4.7586,8.053039 z" /></g><g
     transform="translate(55.424727,13.80656)"
     id="g1104"
     inkscape:export-filename="/home/misto/lm-logo.png"
     inkscape:export-xdpi="150"
     inkscape:export-ydpi="150"><g
       transform="matrix(0.29741252,0,0,0.29741252,7.116321,23.235478)"
       id="g1100"
       style="opacity:0.6;fill:#000000;fill-opacity:1"><path
         d="M 48,37.077 C 48,46.423 40.837,54 32,54 23.163,54 16,46.423 16,37.077 16,27.731 25.6,20.154 32,10 38.4,20.154 48,27.731 48,37.077 Z"
         id="path1098"
         inkscape:connector-curvature="0"
         style="opacity:1;fill:#000000;fill-opacity:1" /></g><path
       style="fill:#ffffff;stroke-width:0.29741251"
       inkscape:connector-curvature="0"
       id="path1102"
       d="m 21.392122,33.072992 c 0,2.779617 -2.130366,5.033112 -4.7586,5.033112 -2.628234,0 -4.7586,-2.253495 -4.7586,-5.033112 0,-2.779618 2.85516,-5.033112 4.7586,-8.053039 1.90344,3.019927 4.7586,5.273421 4.7586,8.053039 z" /></g><g
     id="g1112"
     transform="translate(69.424727,-0.19344)"
     inkscape:export-filename="/home/misto/lm-logo.png"
     inkscape:export-xdpi="150"
     inkscape:export-ydpi="150"><g
       style="opacity:0.6;fill:#000000;fill-opacity:1"
       id="g1108"
       transform="matrix(0.29741252,0,0,0.29741252,7.116321,23.235478)"><path
         style="opacity:1;fill:#000000;fill-opacity:1"
         inkscape:connector-curvature="0"
         id="path1106"
         d="M 48,37.077 C 48,46.423 40.837,54 32,54 23.163,54 16,46.423 16,37.077 16,27.731 25.6,20.154 32,10 38.4,20.154 48,27.731 48,37.077 Z" /></g><path
       d="m 21.392122,33.072992 c 0,2.779617 -2.130366,5.033112 -4.7586,5.033112 -2.628234,0 -4.7586,-2.253495 -4.7586,-5.033112 0,-2.779618 2.85516,-5.033112 4.7586,-8.053039 1.90344,3.019927 4.7586,5.273421 4.7586,8.053039 z"
       id="path1110"
       inkscape:connector-curvature="0"
       style="fill:#ffffff;stroke-width:0.29741251" /></g><g
     id="g1128"
     transform="translate(55.424727,-14.19344)"
     inkscape:export-filename="/home/misto/lm-logo.png"
     inkscape:export-xdpi="150"
     inkscape:export-ydpi="150"><g
       style="opacity:0.6;fill:#000000;fill-opacity:1"
       id="g1124"
       transform="matrix(0.29741252,0,0,0.29741252,7.116321,23.235478)"><path
         style="opacity:1;fill:#000000;fill-opacity:1"
         inkscape:connector-curvature="0"
         id="path1122"
         d="M 48,37.077 C 48,46.423 40.837,54 32,54 23.163,54 16,46.423 16,37.077 16,27.731 25.6,20.154 32,10 38.4,20.154 48,27.731 48,37.077 Z" /></g><path
       d="m 21.392122,33.072992 c 0,2.779617 -2.130366,5.033112 -4.7586,5.033112 -2.628234,0 -4.7586,-2.253495 -4.7586,-5.033112 0,-2.779618 2.85516,-5.033112 4.7586,-8.053039 1.90344,3.019927 4.7586,5.273421 4.7586,8.053039 z"
       id="path1126"
       inkscape:connector-curvature="0"
       style="fill:#ffffff;stroke-width:0.29741251" /></g><g
     transform="translate(1.424727,-14.19344)"
     id="g1144"
     inkscape:export-filename="/home/misto/lm-logo.png"
     inkscape:export-xdpi="150"
     inkscape:export-ydpi="150"><g
       transform="matrix(0.29741252,0,0,0.29741252,7.116321,23.235478)"
       id="g1140"
       style="opacity:0.6;fill:#000000;fill-opacity:1"><path
         d="M 48,37.077 C 48,46.423 40.837,54 32,54 23.163,54 16,46.423 16,37.077 16,27.731 25.6,20.154 32,10 38.4,20.154 48,27.731 48,37.077 Z"
         id="path1138"
         inkscape:connector-curvature="0"
         style="opacity:1;fill:#000000;fill-opacity:1" /></g><path
       style="fill:#ffffff;stroke-width:0.29741251"
       inkscape:connector-curvature="0"
       id="path1142"
       d="m 21.392122,33.072992 c 0,2.779617 -2.130366,5.033112 -4.7586,5.033112 -2.628234,0 -4.7586,-2.253495 -4.7586,-5.033112 0,-2.779618 2.85516,-5.033112 4.7586,-8.053039 1.90344,3.019927 4.7586,5.273421 4.7586,8.053039 z" /></g><g
     id="g1152"
     transform="translate(83.424727,13.80656)"
     inkscape:export-filename="/home/misto/lm-logo.png"
     inkscape:export-xdpi="150"
     inkscape:export-ydpi="150"><g
       style="opacity:0.6;fill:#000000;fill-opacity:1"
       id="g1148"
       transform="matrix(0.29741252,0,0,0.29741252,7.116321,23.235478)"><path
         style="opacity:1;fill:#000000;fill-opacity:1"
         inkscape:connector-curvature="0"
         id="path1146"
         d="M 48,37.077 C 48,46.423 40.837,54 32,54 23.163,54 16,46.423 16,37.077 16,27.731 25.6,20.154 32,10 38.4,20.154 48,27.731 48,37.077 Z" /></g><path
       d="m 21.392122,33.072992 c 0,2.779617 -2.130366,5.033112 -4.7586,5.033112 -2.628234,0 -4.7586,-2.253495 -4.7586,-5.033112 0,-2.779618 2.85516,-5.033112 4.7586,-8.053039 1.90344,3.019927 4.7586,5.273421 4.7586,8.053039 z"
       id="path1150"
       inkscape:connector-curvature="0"
       style="fill:#ffffff;stroke-width:0.29741251" /></g><g
     transform="translate(83.424727,-14.19344)"
     id="g1160"
     inkscape:export-filename="/home/misto/lm-logo.png"
     inkscape:export-xdpi="150"
     inkscape:export-ydpi="150"><g
       transform="matrix(0.29741252,0,0,0.29741252,7.116321,23.235478)"
       id="g1156"
       style="opacity:0.6;fill:#000000;fill-opacity:1"><path
         d="M 48,37.077 C 48,46.423 40.837,54 32,54 23.163,54 16,46.423 16,37.077 16,27.731 25.6,20.154 32,10 38.4,20.154 48,27.731 48,37.077 Z"
         id="path1154"
         inkscape:connector-curvature="0"
         style="opacity:1;fill:#000000;fill-opacity:1" /></g><path
       style="fill:#ffffff;stroke-width:0.29741251"
       inkscape:connector-curvature="0"
       id="path1158"
       d="m 21.392122,33.072992 c 0,2.779617 -2.130366,5.033112 -4.7586,5.033112 -2.628234,0 -4.7586,-2.253495 -4.7586,-5.033112 0,-2.779618 2.85516,-5.033112 4.7586,-8.053039 1.90344,3.019927 4.7586,5.273421 4.7586,8.053039 z" /></g><g
     id="g1168"
     transform="matrix(0.48957013,0,0,0.48957013,21.914973,30.220889)"
     inkscape:export-filename="/home/misto/lm-logo.png"
     inkscape:export-xdpi="150"
     inkscape:export-ydpi="150"><g
       style="opacity:0.6;fill:#000000;fill-opacity:1"
       id="g1164"
       transform="matrix(0.29741252,0,0,0.29741252,7.116321,23.235478)"><path
         style="opacity:1;fill:#000000;fill-opacity:1"
         inkscape:connector-curvature="0"
         id="path1162"
         d="M 48,37.077 C 48,46.423 40.837,54 32,54 23.163,54 16,46.423 16,37.077 16,27.731 25.6,20.154 32,10 38.4,20.154 48,27.731 48,37.077 Z" /></g><path
       d="m 21.392122,33.072992 c 0,2.779617 -2.130366,5.033112 -4.7586,5.033112 -2.628234,0 -4.7586,-2.253495 -4.7586,-5.033112 0,-2.779618 2.85516,-5.033112 4.7586,-8.053039 1.90344,3.019927 4.7586,5.273421 4.7586,8.053039 z"
       id="path1166"
       inkscape:connector-curvature="0"
       style="fill:#ffffff;stroke-width:0.29741251" /></g><g
     transform="matrix(0.48957013,0,0,0.48957013,10.108413,16.222572)"
     id="g1176"
     inkscape:export-filename="/home/misto/lm-logo.png"
     inkscape:export-xdpi="150"
     inkscape:export-ydpi="150"><g
       transform="matrix(0.29741252,0,0,0.29741252,7.116321,23.235478)"
       id="g1172"
       style="opacity:0.6;fill:#000000;fill-opacity:1"><path
         d="M 48,37.077 C 48,46.423 40.837,54 32,54 23.163,54 16,46.423 16,37.077 16,27.731 25.6,20.154 32,10 38.4,20.154 48,27.731 48,37.077 Z"
         id="path1170"
         inkscape:connector-curvature="0"
         style="opacity:1;fill:#000000;fill-opacity:1" /></g><path
       style="fill:#ffffff;stroke-width:0.29741251"
       inkscape:connector-curvature="0"
       id="path1174"
       d="m 21.392122,33.072992 c 0,2.779617 -2.130366,5.033112 -4.7586,5.033112 -2.628234,0 -4.7586,-2.253495 -4.7586,-5.033112 0,-2.779618 2.85516,-5.033112 4.7586,-8.053039 1.90344,3.019927 4.7586,5.273421 4.7586,8.053039 z" /></g><g
     id="g1184"
     transform="matrix(0.48957013,0,0,0.48957013,63.718167,16.030814)"
     inkscape:export-filename="/home/misto/lm-logo.png"
     inkscape:export-xdpi="150"
     inkscape:export-ydpi="150"><g
       style="opacity:0.6;fill:#000000;fill-opacity:1"
       id="g1180"
       transform="matrix(0.29741252,0,0,0.29741252,7.116321,23.235478)"><path
         style="opacity:1;fill:#000000;fill-opacity:1"
         inkscape:connector-curvature="0"
         id="path1178"
         d="M 48,37.077 C 48,46.423 40.837,54 32,54 23.163,54 16,46.423 16,37.077 16,27.731 25.6,20.154 32,10 38.4,20.154 48,27.731 48,37.077 Z" /></g><path
       d="m 21.392122,33.072992 c 0,2.779617 -2.130366,5.033112 -4.7586,5.033112 -2.628234,0 -4.7586,-2.253495 -4.7586,-5.033112 0,-2.779618 2.85516,-5.033112 4.7586,-8.053039 1.90344,3.019927 4.7586,5.273421 4.7586,8.053039 z"
       id="path1182"
       inkscape:connector-curvature="0"
       style="fill:#ffffff;stroke-width:0.29741251" /></g><g
     transform="matrix(0.48957013,0,0,0.48957013,91.331286,16.797845)"
     id="g1192"
     inkscape:export-filename="/home/misto/lm-logo.png"
     inkscape:export-xdpi="150"
     inkscape:export-ydpi="150"><g
       transform="matrix(0.29741252,0,0,0.29741252,7.116321,23.235478)"
       id="g1188"
       style="opacity:0.6;fill:#000000;fill-opacity:1"><path
         d="M 48,37.077 C 48,46.423 40.837,54 32,54 23.163,54 16,46.423 16,37.077 16,27.731 25.6,20.154 32,10 38.4,20.154 48,27.731 48,37.077 Z"
         id="path1186"
         inkscape:connector-curvature="0"
         style="opacity:1;fill:#000000;fill-opacity:1" /></g><path
       style="fill:#ffffff;stroke-width:0.29741251"
       inkscape:connector-curvature="0"
       id="path1190"
       d="m 21.392122,33.072992 c 0,2.779617 -2.130366,5.033112 -4.7586,5.033112 -2.628234,0 -4.7586,-2.253495 -4.7586,-5.033112 0,-2.779618 2.85516,-5.033112 4.7586,-8.053039 1.90344,3.019927 4.7586,5.273421 4.7586,8.053039 z" /></g></svg>